<svg xmlns="http://www.w3.org/2000/svg" version="1.1" xmlns:xlink="http://www.w3.org/1999/xlink" xmlns:svgjs="http://svgjs.dev/svgjs" width="1500" height="1500" viewBox="0 0 1500 1500"><rect width="1500" height="1500" fill="#1b1c1b"></rect><g transform="matrix(0.6666666666666666,0,0,0.6666666666666666,249.13924581494643,246.50076291174867)"><svg viewBox="0 0 245 247" data-background-color="#1b1c1b" preserveAspectRatio="xMidYMid meet" height="1512" width="1500" xmlns="http://www.w3.org/2000/svg" xmlns:xlink="http://www.w3.org/1999/xlink"><g id="tight-bounds" transform="matrix(1,0,0,1,0.21088477533811556,-0.09382179885008668)"><svg viewBox="0 0 244.57823044932374 247.2" height="247.2" width="244.57823044932374"><g><svg viewBox="0 0 397.4975999999999 401.758596991565" height="247.2" width="244.57823044932374"><g><rect width="397.4975999999999" height="6.98501573869746" x="0" y="216.7521339945758" fill="#d2dbc8" opacity="1" stroke-width="0" stroke="transparent" fill-opacity="1" class="rect-yte-0" data-fill-palette-color="primary" rx="1%" id="yte-0" data-palette-color="#d2dbc8"></rect></g><g><rect width="397.4975999999999" height="6.98501573869746" x="0" y="232.87984049073063" fill="#d2dbc8" opacity="1" stroke-width="0" stroke="transparent" fill-opacity="1" class="rect-yte-1" data-fill-palette-color="primary" rx="1%" id="yte-1" data-palette-color="#d2dbc8"></rect></g><g transform="matrix(1,0,0,1,0.9887999999999693,258.1502377443429)"><svg viewBox="0 0 395.52 143.6083592472221" height="143.6083592472221" width="395.52"><g id="textblocktransform"><svg viewBox="0 0 395.52 143.6083592472221" height="143.6083592472221" width="395.52" id="textblock"><g><svg viewBox="0 0 395.52 77.45548685556692" height="77.45548685556692" width="395.52"><g transform="matrix(1,0,0,1,0,0)"><svg width="395.52" viewBox="1.2199999999999998 -34.86 219.51041666666399 42.99" height="77.45548685556692" data-palette-color="#d2dbc8"><path d="M9.52 0.32L9.52 0.32Q5.1 0.32 3.27-1.14 1.44-2.59 1.29-5.93L1.29-5.93Q1.15-9.3 1.29-12.7L1.29-12.7 4.59-12.7Q4.49-10.99 4.49-9.02 4.49-7.06 4.59-5.37L4.59-5.37Q4.71-3.96 5.81-3.28 6.91-2.61 9.52-2.61L9.52-2.61Q12.06-2.61 13.18-3.28 14.31-3.96 14.31-5.37L14.31-5.37 14.31-34.86 17.7-34.86 17.7-5.93Q17.7-2.59 15.83-1.14 13.96 0.32 9.52 0.32ZM29.2 0.29L29.2 0.29Q25.17 0.29 23.45-0.98 21.73-2.25 21.6-5.13L21.6-5.13Q21.51-6.93 21.47-9.38 21.43-11.82 21.47-14.28 21.51-16.75 21.6-18.58L21.6-18.58Q21.73-21.53 23.5-22.8 25.27-24.07 29.2-24.07L29.2-24.07Q32.91-24.07 34.57-22.83 36.23-21.58 36.4-18.73L36.4-18.73Q36.45-17.87 36.5-15.75 36.55-13.62 36.35-11.23L36.35-11.23 24.66-11.23Q24.66-9.69 24.68-8.11 24.7-6.52 24.78-4.81L24.78-4.81Q24.8-3.47 25.8-2.95 26.8-2.44 29.1-2.44L29.1-2.44Q31.37-2.44 32.3-2.95 33.23-3.47 33.32-4.81L33.32-4.81Q33.4-6.15 33.32-8.47L33.32-8.47 36.35-8.47Q36.47-7.76 36.46-6.82 36.45-5.88 36.4-5.13L36.4-5.13Q36.23-2.25 34.65-0.98 33.08 0.29 29.2 0.29ZM24.66-13.82L24.66-13.82 33.37-13.82Q33.42-15.48 33.42-16.99 33.42-18.51 33.32-19.07L33.32-19.07Q33.23-20.29 32.27-20.81 31.32-21.34 29.2-21.34L29.2-21.34Q26.83-21.34 25.82-20.81 24.8-20.29 24.78-19.07L24.78-19.07Q24.7-17.65 24.67-16.36 24.63-15.06 24.66-13.82ZM43.72-19.19L43.72 0 40.57 0 40.57-23.75 43.72-23.75 43.72-21.53 44.4-21.53Q45.04-22.75 46.09-23.41 47.14-24.07 48.7-24.07L48.7-24.07Q51.04-24.07 52.18-22.84 53.32-21.61 53.32-18.58L53.32-18.58Q53.32-17.92 53.27-17.02 53.22-16.11 53.12-15.41L53.12-15.41 50.09-15.41Q50.14-15.65 50.15-16.26 50.17-16.87 50.18-17.48 50.19-18.09 50.19-18.31L50.19-18.31Q50.19-20.12 49.58-20.76 48.97-21.41 47.63-21.41L47.63-21.41Q44.77-21.41 43.72-19.19L43.72-19.19ZM63.59 0.29L63.59 0.29Q59.66 0.29 58.13-0.98 56.61-2.25 56.49-5.13L56.49-5.13Q56.44-5.88 56.43-6.82 56.41-7.76 56.51-8.47L56.51-8.47 59.37-8.47Q59.32-7.35 59.33-6.41 59.34-5.47 59.37-4.81L59.37-4.81Q59.39-3.47 60.31-2.95 61.22-2.44 63.59-2.44L63.59-2.44Q66.01-2.44 67-2.95 67.99-3.47 68.06-4.81L68.06-4.81Q68.13-5.64 68.16-6.04 68.18-6.45 68.16-7.2L68.16-7.2Q68.08-8.45 67.5-9.13 66.91-9.81 64.96-10.11L64.96-10.11 62.1-10.77Q59.9-11.23 58.71-11.94 57.51-12.65 57.02-13.78 56.54-14.92 56.44-16.65L56.44-16.65Q56.36-17.53 56.56-18.58L56.56-18.58Q56.61-21.53 58.16-22.8 59.71-24.07 63.81-24.07L63.81-24.07Q67.74-24.07 69.27-22.83 70.79-21.58 70.94-18.73L70.94-18.73Q70.94-17.99 70.93-17.05 70.92-16.11 70.84-15.41L70.84-15.41 67.89-15.41Q68.01-16.26 68-17.36 67.99-18.46 67.94-19.07L67.94-19.07Q67.91-20.36 67.05-20.85 66.18-21.34 63.81-21.34L63.81-21.34Q61.42-21.34 60.55-20.85 59.68-20.36 59.59-19.07L59.59-19.07Q59.56-18.46 59.51-18.05 59.47-17.65 59.49-16.94L59.49-16.94Q59.56-16.09 59.75-15.43 59.93-14.77 60.58-14.34 61.22-13.92 62.69-13.7L62.69-13.7 65.42-13.13Q68.4-12.52 69.77-11.24 71.14-9.96 71.14-7.37L71.14-7.37Q71.14-6.84 71.12-6.23 71.11-5.62 71.06-5.05L71.06-5.05Q70.89-2.2 69.27-0.95 67.64 0.29 63.59 0.29ZM82.34 0.29L82.34 0.29Q78.31 0.29 76.59-0.98 74.87-2.25 74.75-5.13L74.75-5.13Q74.65-6.93 74.61-9.38 74.57-11.82 74.61-14.28 74.65-16.75 74.75-18.58L74.75-18.58Q74.87-21.53 76.64-22.8 78.41-24.07 82.34-24.07L82.34-24.07Q86.05-24.07 87.71-22.83 89.37-21.58 89.54-18.73L89.54-18.73Q89.59-17.87 89.64-15.75 89.69-13.62 89.49-11.23L89.49-11.23 77.8-11.23Q77.8-9.69 77.82-8.11 77.85-6.52 77.92-4.81L77.92-4.81Q77.94-3.47 78.95-2.95 79.95-2.44 82.24-2.44L82.24-2.44Q84.51-2.44 85.44-2.95 86.37-3.47 86.46-4.81L86.46-4.81Q86.54-6.15 86.46-8.47L86.46-8.47 89.49-8.47Q89.61-7.76 89.6-6.82 89.59-5.88 89.54-5.13L89.54-5.13Q89.37-2.25 87.8-0.98 86.22 0.29 82.34 0.29ZM77.8-13.82L77.8-13.82 86.51-13.82Q86.56-15.48 86.56-16.99 86.56-18.51 86.46-19.07L86.46-19.07Q86.37-20.29 85.41-20.81 84.46-21.34 82.34-21.34L82.34-21.34Q79.97-21.34 78.96-20.81 77.94-20.29 77.92-19.07L77.92-19.07Q77.85-17.65 77.81-16.36 77.77-15.06 77.8-13.82ZM95.84 8.13L95.84 8.13Q95.06 8.13 93.97 8.06 92.88 7.98 92.18 7.91L92.18 7.91 92.18 5.2Q93.69 5.32 95.74 5.32L95.74 5.32Q97.91 5.32 98.68 4.8 99.45 4.27 99.72 2.95L99.72 2.95 100.43 0 97.13 0 92.74-23.75 95.96-23.75 97.59-12.43 99.47-2.71 100.96-2.71 102.97-12.43 104.7-23.75 107.95-23.75 102.82 2.71Q102.36 5.59 100.87 6.86 99.38 8.13 95.84 8.13ZM124.13-13.06L124.13 0 120.73 0 120.73-34.86 128.82-34.86Q133.16-34.86 135.15-33.45 137.14-32.03 137.36-28.76L137.36-28.76Q137.6-26.03 137.58-23.75 137.56-21.48 137.36-19.17L137.36-19.17Q137.24-16.94 136.12-15.61 134.99-14.28 132.6-13.65L132.6-13.65 138.73 0 135.02 0 129.3-13.06 124.13-13.06ZM128.82-31.74L124.13-31.74 124.13-16.19 128.72-16.19Q131.48-16.19 132.69-16.87 133.89-17.55 133.99-18.99L133.99-18.99Q134.36-23.97 133.99-28.93L133.99-28.93Q133.89-30.37 132.7-31.05 131.5-31.74 128.82-31.74L128.82-31.74ZM149.32 0.29L149.32 0.29Q145.34 0.29 143.71-1.07 142.07-2.44 141.95-5.62L141.95-5.62Q141.8-7.42 141.75-9.63 141.7-11.84 141.75-14.09 141.8-16.33 141.95-18.16L141.95-18.16Q142.07-21.34 143.72-22.71 145.37-24.07 149.32-24.07L149.32-24.07Q153.32-24.07 154.92-22.71 156.52-21.34 156.65-18.16L156.65-18.16Q156.79-16.36 156.84-14.15 156.89-11.94 156.84-9.7 156.79-7.47 156.65-5.62L156.65-5.62Q156.52-2.47 154.92-1.09 153.32 0.29 149.32 0.29ZM149.32-2.44L149.32-2.44Q151.57-2.44 152.52-2.99 153.47-3.54 153.54-4.81L153.54-4.81Q153.79-8.62 153.79-11.89 153.79-15.16 153.54-18.97L153.54-18.97Q153.47-20.26 152.54-20.8 151.62-21.34 149.32-21.34L149.32-21.34Q147.03-21.34 146.09-20.8 145.15-20.26 145.07-18.97L145.07-18.97Q144.85-15.16 144.84-11.88 144.83-8.59 145.07-4.81L145.07-4.81Q145.12-3.54 146.11-2.99 147.1-2.44 149.32-2.44ZM163.26 8.13L163.26 8.13Q162.48 8.13 161.39 8.06 160.3 7.98 159.6 7.91L159.6 7.91 159.6 5.2Q161.11 5.32 163.16 5.32L163.16 5.32Q165.33 5.32 166.1 4.8 166.87 4.27 167.14 2.95L167.14 2.95 167.85 0 164.55 0 160.16-23.75 163.38-23.75 165.02-12.43 166.9-2.71 168.39-2.71 170.39-12.43 172.12-23.75 175.37-23.75 170.24 2.71Q169.78 5.59 168.29 6.86 166.8 8.13 163.26 8.13ZM183.93 0.27L183.93 0.27Q180.96 0.27 179.53-0.9 178.1-2.08 177.86-4.57L177.86-4.57Q177.83-5.05 177.79-5.54 177.76-6.03 177.81-6.49L177.81-6.49Q177.98-8.67 179.17-10.14 180.37-11.62 183.72-12.84L183.72-12.84Q185.08-13.33 186.6-13.72 188.11-14.11 189.6-14.48L189.6-14.48 189.6-18.99Q189.6-20.19 188.7-20.76 187.79-21.34 185.55-21.34L185.55-21.34Q183.59-21.34 182.58-20.85 181.57-20.36 181.47-19.07L181.47-19.07Q181.42-18.46 181.42-17.32 181.42-16.19 181.47-15.41L181.47-15.41 178.42-15.41Q178.37-16.02 178.32-16.99 178.27-17.97 178.34-18.73L178.34-18.73Q178.47-21.56 180.19-22.81 181.91-24.07 185.67-24.07L185.67-24.07Q189.6-24.07 191.12-22.71 192.65-21.34 192.68-18.21L192.68-18.21 192.68 0 189.6 0 189.6-2.25 188.92-2.25Q188.31-1.03 187.17-0.38 186.03 0.27 183.93 0.27ZM184.72-2.37L184.72-2.37Q188.23-2.37 189.57-4.47L189.57-4.47 189.57-11.87Q188.4-11.62 187.17-11.29 185.94-10.96 184.28-10.4L184.28-10.4Q182.3-9.67 181.64-8.72 180.98-7.76 180.88-6.49L180.88-6.49Q180.91-6.13 180.92-5.7 180.93-5.27 180.98-4.81L180.98-4.81Q181.15-3.64 182.15-3 183.15-2.37 184.72-2.37ZM200.92-31.69L200.92 0 197.75 0 197.75-31.69 200.92-31.69ZM213.42 0.29L213.42 0.29Q209.39 0.29 207.67-0.98 205.95-2.25 205.83-5.13L205.83-5.13Q205.73-6.93 205.7-9.38 205.66-11.82 205.7-14.28 205.73-16.75 205.83-18.58L205.83-18.58Q205.95-21.53 207.72-22.8 209.49-24.07 213.42-24.07L213.42-24.07Q217.13-24.07 218.79-22.83 220.45-21.58 220.62-18.73L220.62-18.73Q220.67-17.87 220.72-15.75 220.77-13.62 220.58-11.23L220.58-11.23 208.88-11.23Q208.88-9.69 208.91-8.11 208.93-6.52 209-4.81L209-4.81Q209.03-3.47 210.03-2.95 211.03-2.44 213.32-2.44L213.32-2.44Q215.6-2.44 216.52-2.95 217.45-3.47 217.55-4.81L217.55-4.81Q217.62-6.15 217.55-8.47L217.55-8.47 220.58-8.47Q220.7-7.76 220.69-6.82 220.67-5.88 220.62-5.13L220.62-5.13Q220.45-2.25 218.88-0.98 217.3 0.29 213.42 0.29ZM208.88-13.82L208.88-13.82 217.6-13.82Q217.65-15.48 217.65-16.99 217.65-18.51 217.55-19.07L217.55-19.07Q217.45-20.29 216.5-20.81 215.55-21.34 213.42-21.34L213.42-21.34Q211.05-21.34 210.04-20.81 209.03-20.29 209-19.07L209-19.07Q208.93-17.65 208.89-16.36 208.86-15.06 208.88-13.82Z" opacity="1" transform="matrix(1,0,0,1,0,0)" fill="#d2dbc8" class="wordmark-text-0" data-fill-palette-color="primary" id="text-0"></path></svg></g></svg></g><g transform="matrix(1,0,0,1,0,95.74086837048173)"><svg viewBox="0 0 395.52 47.867490876740355" height="47.867490876740355" width="395.52"><g transform="matrix(1,0,0,1,0,0)"><svg width="395.52" viewBox="0.4 -34 360.26000000000005 43.6" height="47.867490876740355" data-palette-color="#d2dbc8"><path d="M11.55 0.5L11.55 0.5Q10.95 0.5 10.33 0.3 9.7 0.1 9.3-0.65 8.9-1.4 8.9-2.95L8.9-2.95Q8.9-4.05 9.08-5.65 9.25-7.25 9.55-9.1L9.55-9.1Q9.95-11.6 10.23-14.38 10.5-17.15 10.5-20.05L10.5-20.05Q10.5-22.4 10.28-24.13 10.05-25.85 9.7-26.8L9.7-26.8Q7.8-26.75 6.1-26.55 4.4-26.35 2.65-25.9L2.65-25.9Q2.2-25.85 1.88-25.78 1.55-25.7 1.25-25.7L1.25-25.7Q0.8-25.7 0.6-25.88 0.4-26.05 0.4-26.75L0.4-26.75Q0.4-27.6 0.65-28.53 0.9-29.45 1.4-30.1L1.4-30.1Q1.9-30.8 2.58-31.13 3.25-31.45 4.05-31.55L4.05-31.55Q5.3-31.7 7.25-31.83 9.2-31.95 11.53-32.05 13.85-32.15 16.1-32.15L16.1-32.15Q19.75-32.15 21.33-32.1 22.9-32.05 23.45-31.95L23.45-31.95Q24.15-31.85 24.43-31.53 24.7-31.2 24.7-30.5L24.7-30.5Q24.7-29.15 23.5-27.8L23.5-27.8Q23-27.2 22.45-26.88 21.9-26.55 21-26.6L21-26.6Q20.2-26.7 18.65-26.75 17.1-26.8 15.2-26.8L15.2-26.8Q15.15-25.05 14.93-22.73 14.7-20.4 14.4-18.05L14.4-18.05Q14.1-15.75 13.9-13.45 13.7-11.15 13.7-9.25L13.7-9.25Q13.7-7.5 14.03-6.18 14.35-4.85 15.35-3.9L15.35-3.9Q16.05-3.2 16.05-2.4L16.05-2.4Q16.05-1.3 14.8-0.4 13.55 0.5 11.55 0.5ZM30.17 0.55L30.17 0.55Q29.47 0.55 28.97 0.23 28.47-0.1 28.57-0.65L28.57-0.65Q29.32-4.65 29.85-8.78 30.37-12.9 30.37-17.1L30.37-17.1Q30.37-20.8 30.12-23.8 29.87-26.8 28.52-29.55L28.52-29.55Q28.27-30.1 28.12-30.5 27.97-30.9 27.97-31.25L27.97-31.25Q27.97-32.2 29.1-33.1 30.22-34 31.47-34L31.47-34Q33.22-34 33.87-31.8 34.52-29.6 34.52-25.3L34.52-25.3Q34.52-20.15 33.92-16.32 33.32-12.5 32.87-10.5L32.87-10.5 33.07-10.4Q34.07-13.05 35.5-15.35 36.92-17.65 38.82-19.05 40.72-20.45 43.22-20.45L43.22-20.45Q45.87-20.45 47.25-18.85 48.62-17.25 48.62-14.9L48.62-14.9Q48.62-13.9 48.42-12.98 48.22-12.05 47.97-11.2L47.97-11.2Q47.72-10.4 47.52-9.58 47.32-8.75 47.32-7.9L47.32-7.9Q47.32-6.35 48.07-5.38 48.82-4.4 50.07-4L50.07-4Q50.42-3.9 50.6-3.73 50.77-3.55 50.77-3.1L50.77-3.1Q50.77-2.65 50.47-1.8 50.17-0.95 49.37-0.23 48.57 0.5 47.02 0.5L47.02 0.5Q45.02 0.5 43.92-0.93 42.82-2.35 42.82-4.6L42.82-4.6Q42.82-5.7 43.05-6.85 43.27-8 43.57-9.05L43.57-9.05Q43.82-10.1 44.02-11.03 44.22-11.95 44.22-12.6L44.22-12.6Q44.22-14.9 41.82-14.9L41.82-14.9Q39.82-14.9 38.3-13.48 36.77-12.05 35.7-9.88 34.62-7.7 33.92-5.4L33.92-5.4 33.92-3.7Q33.92-1.85 32.85-0.65 31.77 0.55 30.17 0.55ZM63.54 0.65L63.54 0.65Q59.74 0.65 57.62-1.53 55.49-3.7 55.49-7.6L55.49-7.6Q55.49-11.15 57.04-14.05 58.59-16.95 61.22-18.68 63.84-20.4 66.99-20.4L66.99-20.4Q69.99-20.4 71.79-18.93 73.59-17.45 73.59-15L73.59-15Q73.59-13.05 72.39-11.4 71.19-9.75 69.19-8.78 67.19-7.8 64.74-7.8L64.74-7.8Q61.74-7.8 59.84-9.15L59.84-9.15Q59.89-6.85 61.42-5.45 62.94-4.05 65.34-4.05L65.34-4.05Q66.79-4.05 68.32-4.58 69.84-5.1 70.94-6L70.94-6Q71.64-6.6 72.24-6.6L72.24-6.6Q72.74-6.6 73.07-6.28 73.39-5.95 73.39-5.45L73.39-5.45Q73.39-4.35 71.49-2.55L71.49-2.55Q68.14 0.65 63.54 0.65ZM64.29-11.1L64.29-11.1Q66.09-11.1 67.29-11.85 68.49-12.6 68.49-13.75L68.49-13.75Q68.49-14.7 67.69-15.23 66.89-15.75 65.49-15.75L65.49-15.75Q63.64-15.75 62.27-14.78 60.89-13.8 60.29-12.05L60.29-12.05Q60.99-11.6 62.09-11.35 63.19-11.1 64.29-11.1ZM101.63 0.65L101.63 0.65Q99.13 0.65 97.76-0.8 96.38-2.25 96.38-5L96.38-5Q96.38-6.95 96.93-9L96.93-9Q97.18-9.85 97.33-10.7 97.48-11.55 97.48-12.4L97.48-12.4Q97.48-14.6 96.13-15.25L96.13-15.25Q94.83-15.95 94.83-16.75L94.83-16.75Q94.83-17.55 95.51-18.35 96.18-19.15 97.18-19.68 98.18-20.2 99.18-20.2L99.18-20.2Q102.03-20.2 102.03-15.55L102.03-15.55Q102.03-14.05 101.81-12.78 101.58-11.5 101.28-10.35L101.28-10.35Q101.08-9.55 100.96-8.75 100.83-7.95 100.83-7.35L100.83-7.35Q100.83-4.85 103.28-4.85L103.28-4.85Q105.58-4.85 107.58-7.3 109.58-9.75 110.88-14.15L110.88-14.15 110.83-15.1Q110.73-17.6 111.71-18.9 112.68-20.2 114.58-20.2L114.58-20.2Q116.23-20.2 116.23-19.15L116.23-19.15Q116.23-18.8 116.11-18.25 115.98-17.7 115.73-16.95L115.73-16.95Q115.23-15.1 114.88-13.03 114.53-10.95 114.53-9.2L114.53-9.2Q114.53-7.25 115.13-5.98 115.73-4.7 117.38-4.25L117.38-4.25Q117.83-4.2 118.11-3.98 118.38-3.75 118.38-3.05L118.38-3.05Q118.38-1.85 117.38-0.7 116.38 0.45 114.48 0.45L114.48 0.45Q110.83 0.45 110.83-4.7L110.83-4.7Q110.83-5.6 110.98-7.4L110.98-7.4 110.88-7.45Q107.73 0.65 101.63 0.65ZM126.65 0.5L126.65 0.5Q125.2 0.5 124.5-0.3 123.8-1.1 123.8-3.1L123.8-3.1Q123.8-4.05 123.95-5.55 124.1-7.05 124.3-8.8L124.3-8.8Q124.6-10.95 124.83-13.3 125.05-15.65 125.05-17.8L125.05-17.8Q125.05-20.85 124.78-24.13 124.5-27.4 123.25-29.85L123.25-29.85Q122.8-30.85 122.8-31.3L122.8-31.3Q122.8-31.95 123.38-32.55 123.95-33.15 124.8-33.58 125.65-34 126.45-34L126.45-34Q127.75-34 128.4-32.83 129.05-31.65 129.25-29.63 129.45-27.6 129.45-25L129.45-25Q129.45-21.05 129.13-18.15 128.8-15.25 128.5-13.05L128.5-13.05Q128.3-11.6 128.13-10.3 127.95-9 127.95-7.95L127.95-7.95Q127.95-6.2 128.53-5.43 129.1-4.65 130.4-3.9L130.4-3.9Q130.75-3.7 130.93-3.53 131.1-3.35 131.1-3L131.1-3Q131.1-2.6 130.7-1.75 130.3-0.9 129.33-0.2 128.35 0.5 126.65 0.5ZM143.37 0.65L143.37 0.65Q140.32 0.65 139-1.38 137.67-3.4 137.67-6.6L137.67-6.6Q137.67-7.75 137.8-8.85 137.92-9.95 138.07-11.05L138.07-11.05Q138.22-12.15 138.37-13.2 138.52-14.25 138.62-15.2L138.62-15.2Q137.57-14.9 136.52-14.9L136.52-14.9Q135.42-14.9 135.42-15.8L135.42-15.8Q135.42-16.75 136.27-18.13 137.12-19.5 138.4-20.85 139.67-22.2 140.95-23.13 142.22-24.05 143.12-24.05L143.12-24.05Q144.22-24.05 144.22-22.15L144.22-22.15Q144.22-21.65 144.15-21.13 144.07-20.6 143.97-20.05L143.97-20.05Q144.92-20.25 145.9-20.4 146.87-20.55 147.77-20.55L147.77-20.55Q148.92-20.55 149.55-20.15 150.17-19.75 150.17-18.6L150.17-18.6Q150.17-17.4 149.6-16.2 149.02-15 148.32-15L148.32-15Q148.17-15 147.82-15.05 147.47-15.1 146.97-15.2L146.97-15.2Q146.32-15.35 145.32-15.5 144.32-15.65 142.92-15.65L142.92-15.65Q142.57-14.1 142.3-12.48 142.02-10.85 142.02-9.55L142.02-9.55Q142.02-6.65 143.47-5.6 144.92-4.55 147.67-4.55L147.67-4.55Q148.52-4.55 148.87-4.28 149.22-4 149.22-3.3L149.22-3.3Q149.22-1.65 147.52-0.5 145.82 0.65 143.37 0.65ZM158.74-24.85L158.74-24.85Q157.34-24.9 156.49-25.7 155.64-26.5 155.64-27.95L155.64-27.95Q155.69-29.5 156.69-30.48 157.69-31.45 159.24-31.4L159.24-31.4Q160.69-31.35 161.52-30.55 162.34-29.75 162.29-28.3L162.29-28.3Q162.24-26.8 161.29-25.83 160.34-24.85 158.74-24.85ZM158.79 0.5L158.79 0.5Q157.29 0.5 156.44-0.33 155.59-1.15 155.59-3.15L155.59-3.15Q155.59-4.3 155.82-5.4 156.04-6.5 156.34-7.55L156.34-7.55Q156.69-8.65 156.92-9.8 157.14-10.95 157.14-12.25L157.14-12.25Q157.14-13.15 156.89-13.98 156.64-14.8 155.79-15.2L155.79-15.2Q155.14-15.55 154.67-15.93 154.19-16.3 154.19-16.9L154.19-16.9Q154.19-17.6 154.84-18.4 155.49-19.2 156.57-19.78 157.64-20.35 158.79-20.35L158.79-20.35Q160.04-20.35 160.62-19.7 161.19-19.05 161.39-18.05 161.59-17.05 161.59-16L161.59-16Q161.59-14.4 161.34-12.88 161.09-11.35 160.84-10.05L160.84-10.05Q160.64-9.1 160.54-8.3 160.44-7.5 160.44-6.8L160.44-6.8Q160.44-5.55 161.04-4.93 161.64-4.3 162.74-3.75L162.74-3.75Q163.19-3.5 163.19-3L163.19-3Q163.19-2.6 162.79-1.75 162.39-0.9 161.42-0.2 160.44 0.5 158.79 0.5ZM171.46 0.55L171.46 0.55Q169.66 0.55 169.86-0.65L169.86-0.65Q170.41-2.8 170.79-5.03 171.16-7.25 171.16-9.3L171.16-9.3Q171.16-11.95 170.84-13.18 170.51-14.4 169.96-14.88 169.41-15.35 168.61-15.6L168.61-15.6Q168.26-15.75 167.99-16 167.71-16.25 167.71-16.7L167.71-16.7Q167.71-17.4 168.26-18.25 168.81-19.1 169.84-19.73 170.86-20.35 172.16-20.35L172.16-20.35Q173.86-20.35 174.51-19.18 175.16-18 175.16-16.1L175.16-16.1Q175.16-14.85 174.91-13.3 174.66-11.75 174.41-10.5L174.41-10.5 174.51-10.45Q175.31-13.1 176.49-15.35 177.66-17.6 179.34-19 181.01-20.4 183.21-20.4L183.21-20.4Q185.46-20.4 186.76-18.88 188.06-17.35 188.06-14.4L188.06-14.4 188.06-13.3Q189.51-16.35 191.59-18.4 193.66-20.45 196.61-20.45L196.61-20.45Q199.01-20.45 200.36-18.85 201.71-17.25 201.71-14.85L201.71-14.85Q201.71-13.9 201.51-13.03 201.31-12.15 201.06-11.3L201.06-11.3Q200.86-10.5 200.66-9.65 200.46-8.8 200.46-7.95L200.46-7.95Q200.46-4.95 203.01-4.05L203.01-4.05Q203.36-3.9 203.56-3.73 203.76-3.55 203.76-3.1L203.76-3.1Q203.76-2.65 203.49-1.8 203.21-0.95 202.41-0.23 201.61 0.5 200.11 0.5L200.11 0.5Q198.16 0.5 197.11-0.93 196.06-2.35 196.06-4.55L196.06-4.55Q196.06-5.65 196.26-6.85 196.46-8.05 196.76-9.15L196.76-9.15Q197.01-10.15 197.19-11.05 197.36-11.95 197.36-12.6L197.36-12.6Q197.36-13.8 196.79-14.35 196.21-14.9 195.26-14.9L195.26-14.9Q193.66-14.9 192.39-13.9 191.11-12.9 190.14-11.3 189.16-9.7 188.46-7.8L188.46-7.8Q188.51-7.35 188.54-6.63 188.56-5.9 188.56-5.35L188.56-5.35Q188.56-4.4 188.44-3.35 188.31-2.3 187.96-1.6L187.96-1.6Q187.56-0.65 186.79-0.05 186.01 0.55 184.71 0.55L184.71 0.55Q184.16 0.55 183.66 0.33 183.16 0.1 183.16-0.4L183.16-0.4Q183.16-0.6 183.46-2.18 183.76-3.75 184.06-6.05 184.36-8.35 184.36-10.55L184.36-10.55Q184.36-12.95 183.86-13.88 183.36-14.8 182.36-14.8L182.36-14.8Q181.11-14.8 179.99-13.75 178.86-12.7 177.94-11.05 177.01-9.4 176.34-7.6 175.66-5.8 175.26-4.25L175.26-4.25 175.26-3.7Q175.26-1.85 174.24-0.65 173.21 0.55 171.46 0.55ZM214.89 0.65L214.89 0.65Q211.89 0.65 210.06-1.23 208.24-3.1 208.24-6.6L208.24-6.6Q208.24-9.1 209.21-11.58 210.19-14.05 212.04-16.05 213.89-18.05 216.49-19.25 219.09-20.45 222.34-20.45L222.34-20.45Q225.34-20.45 227.46-19.43 229.59-18.4 229.59-16.65L229.59-16.65Q229.59-16.2 229.49-15.48 229.39-14.75 229.24-14.3L229.24-14.3Q229.09-13.9 228.81-13.58 228.54-13.25 228.09-13.25L228.09-13.25Q227.89-13.25 227.34-13.4L227.34-13.4Q227.14-12.35 227.04-11.35 226.94-10.35 226.94-9.35L226.94-9.35Q226.94-7.45 227.51-5.98 228.09-4.5 229.79-4.15L229.79-4.15Q230.24-4.05 230.51-3.85 230.79-3.65 230.79-3L230.79-3Q230.79-2.45 230.51-1.6 230.24-0.75 229.46-0.08 228.69 0.6 227.24 0.6L227.24 0.6Q225.29 0.6 224.24-0.83 223.19-2.25 223.19-4.9L223.19-4.9Q221.84-2.45 219.76-0.9 217.69 0.65 214.89 0.65ZM216.49-4.55L216.49-4.55Q218.49-4.55 220.01-5.8 221.54-7.05 222.39-8.95L222.39-8.95Q222.94-10.15 223.24-11.58 223.54-13 223.64-14.4L223.64-14.4Q222.79-14.8 221.69-15.05 220.59-15.3 219.39-15.3L219.39-15.3Q216.34-15.3 214.36-13.5 212.39-11.7 212.39-9L212.39-9Q212.39-7 213.49-5.78 214.59-4.55 216.49-4.55ZM242.91 0.65L242.91 0.65Q239.86 0.65 238.53-1.38 237.21-3.4 237.21-6.6L237.21-6.6Q237.21-7.75 237.33-8.85 237.46-9.95 237.61-11.05L237.61-11.05Q237.76-12.15 237.91-13.2 238.06-14.25 238.16-15.2L238.16-15.2Q237.11-14.9 236.06-14.9L236.06-14.9Q234.96-14.9 234.96-15.8L234.96-15.8Q234.96-16.75 235.81-18.13 236.66-19.5 237.93-20.85 239.21-22.2 240.48-23.13 241.76-24.05 242.66-24.05L242.66-24.05Q243.76-24.05 243.76-22.15L243.76-22.15Q243.76-21.65 243.68-21.13 243.61-20.6 243.51-20.05L243.51-20.05Q244.46-20.25 245.43-20.4 246.41-20.55 247.31-20.55L247.31-20.55Q248.46-20.55 249.08-20.15 249.71-19.75 249.71-18.6L249.71-18.6Q249.71-17.4 249.13-16.2 248.56-15 247.86-15L247.86-15Q247.71-15 247.36-15.05 247.01-15.1 246.51-15.2L246.51-15.2Q245.86-15.35 244.86-15.5 243.86-15.65 242.46-15.65L242.46-15.65Q242.11-14.1 241.83-12.48 241.56-10.85 241.56-9.55L241.56-9.55Q241.56-6.65 243.01-5.6 244.46-4.55 247.21-4.55L247.21-4.55Q248.06-4.55 248.41-4.28 248.76-4 248.76-3.3L248.76-3.3Q248.76-1.65 247.06-0.5 245.36 0.65 242.91 0.65ZM261.53 0.65L261.53 0.65Q257.73 0.65 255.6-1.53 253.48-3.7 253.48-7.6L253.48-7.6Q253.48-11.15 255.03-14.05 256.58-16.95 259.2-18.68 261.83-20.4 264.98-20.4L264.98-20.4Q267.98-20.4 269.78-18.93 271.58-17.45 271.58-15L271.58-15Q271.58-13.05 270.38-11.4 269.18-9.75 267.18-8.78 265.18-7.8 262.73-7.8L262.73-7.8Q259.73-7.8 257.83-9.15L257.83-9.15Q257.88-6.85 259.4-5.45 260.93-4.05 263.33-4.05L263.33-4.05Q264.78-4.05 266.3-4.58 267.83-5.1 268.93-6L268.93-6Q269.63-6.6 270.23-6.6L270.23-6.6Q270.73-6.6 271.05-6.28 271.38-5.95 271.38-5.45L271.38-5.45Q271.38-4.35 269.48-2.55L269.48-2.55Q266.13 0.65 261.53 0.65ZM262.28-11.1L262.28-11.1Q264.08-11.1 265.28-11.85 266.48-12.6 266.48-13.75L266.48-13.75Q266.48-14.7 265.68-15.23 264.88-15.75 263.48-15.75L263.48-15.75Q261.63-15.75 260.25-14.78 258.88-13.8 258.28-12.05L258.28-12.05Q258.98-11.6 260.08-11.35 261.18-11.1 262.28-11.1ZM296.32 9.6L296.32 9.6Q295.37 9.6 294.87 9.13 294.37 8.65 294.42 7.4L294.42 7.4Q294.42 6.65 294.54 4.73 294.67 2.8 294.89 0.18 295.12-2.45 295.39-5.3 295.67-8.15 295.92-10.8 296.17-13.45 296.37-15.35L296.37-15.35Q295.87-15.3 295.42-15.28 294.97-15.25 294.52-15.15L294.52-15.15Q294.02-15.05 293.77-15.05L293.77-15.05Q293.17-15.05 292.97-15.78 292.77-16.5 292.77-17.15L292.77-17.15Q292.77-17.9 292.99-18.4 293.22-18.9 293.97-19.2L293.97-19.2Q294.42-19.4 295.14-19.55 295.87-19.7 296.67-19.8L296.67-19.8Q296.92-22.75 297.44-25.4 297.97-28.05 299.07-29.9L299.07-29.9Q300.22-31.8 302.19-32.9 304.17-34 306.22-34L306.22-34Q307.72-34 309.04-33.43 310.37-32.85 311.19-31.83 312.02-30.8 312.02-29.5L312.02-29.5Q312.02-28.55 311.54-27.95 311.07-27.35 310.47-27.35L310.47-27.35Q310.22-27.35 309.92-27.45 309.62-27.55 309.32-27.65L309.32-27.65Q308.77-27.9 307.94-28.08 307.12-28.25 306.17-28.25L306.17-28.25Q304.22-28.25 303.09-27.2 301.97-26.15 301.39-24.33 300.82-22.5 300.47-20.1L300.47-20.1Q301.52-20.2 302.72-20.3 303.92-20.4 304.67-20.4L304.67-20.4Q305.87-20.4 306.54-20.03 307.22-19.65 307.22-18.6L307.22-18.6Q307.22-17.95 306.99-17.07 306.77-16.2 306.32-15.53 305.87-14.85 305.27-14.85L305.27-14.85Q305.02-14.85 304.42-15L304.42-15Q303.77-15.1 302.72-15.25 301.67-15.4 300.07-15.45L300.07-15.45Q299.87-13.3 299.74-10.68 299.62-8.05 299.62-5.15L299.62-5.15Q299.62-2 299.82 0.3 300.02 2.6 300.22 4.05L300.22 4.05Q300.32 4.7 300.37 5.2 300.42 5.7 300.42 6L300.42 6Q300.42 7.45 299.72 8.22 299.02 9 298.07 9.3 297.12 9.6 296.32 9.6ZM316.34 0.65L316.34 0.65Q313.34 0.65 311.51-1.23 309.69-3.1 309.69-6.6L309.69-6.6Q309.69-9.1 310.66-11.58 311.64-14.05 313.49-16.05 315.34-18.05 317.94-19.25 320.54-20.45 323.79-20.45L323.79-20.45Q326.79-20.45 328.91-19.43 331.04-18.4 331.04-16.65L331.04-16.65Q331.04-16.2 330.94-15.48 330.84-14.75 330.69-14.3L330.69-14.3Q330.54-13.9 330.26-13.58 329.99-13.25 329.54-13.25L329.54-13.25Q329.34-13.25 328.79-13.4L328.79-13.4Q328.59-12.35 328.49-11.35 328.39-10.35 328.39-9.35L328.39-9.35Q328.39-7.45 328.96-5.98 329.54-4.5 331.24-4.15L331.24-4.15Q331.69-4.05 331.96-3.85 332.24-3.65 332.24-3L332.24-3Q332.24-2.45 331.96-1.6 331.69-0.75 330.91-0.08 330.14 0.6 328.69 0.6L328.69 0.6Q326.74 0.6 325.69-0.83 324.64-2.25 324.64-4.9L324.64-4.9Q323.29-2.45 321.21-0.9 319.14 0.65 316.34 0.65ZM317.94-4.55L317.94-4.55Q319.94-4.55 321.46-5.8 322.99-7.05 323.84-8.95L323.84-8.95Q324.39-10.15 324.69-11.58 324.99-13 325.09-14.4L325.09-14.4Q324.24-14.8 323.14-15.05 322.04-15.3 320.84-15.3L320.84-15.3Q317.79-15.3 315.81-13.5 313.84-11.7 313.84-9L313.84-9Q313.84-7 314.94-5.78 316.04-4.55 317.94-4.55ZM339.86 0.55L339.86 0.55Q338.06 0.55 338.26-0.65L338.26-0.65Q338.81-2.8 339.18-5.03 339.56-7.25 339.56-9.3L339.56-9.3Q339.56-11.95 339.23-13.18 338.91-14.4 338.36-14.88 337.81-15.35 337.01-15.6L337.01-15.6Q336.66-15.75 336.38-16 336.11-16.25 336.11-16.7L336.11-16.7Q336.11-17.4 336.66-18.25 337.21-19.1 338.23-19.73 339.26-20.35 340.56-20.35L340.56-20.35Q342.26-20.35 342.91-19.18 343.56-18 343.56-16.1L343.56-16.1Q343.56-14.85 343.31-13.3 343.06-11.75 342.81-10.5L342.81-10.5 342.96-10.45Q343.96-13.1 345.38-15.38 346.81-17.65 348.71-19.05 350.61-20.45 353.11-20.45L353.11-20.45Q355.76-20.45 357.16-18.85 358.56-17.25 358.56-14.85L358.56-14.85Q358.56-13.85 358.33-12.95 358.11-12.05 357.86-11.2L357.86-11.2Q357.61-10.4 357.43-9.55 357.26-8.7 357.26-7.85L357.26-7.85Q357.26-5 359.96-4L359.96-4Q360.66-3.7 360.66-3.1L360.66-3.1Q360.66-2.65 360.36-1.8 360.06-0.95 359.26-0.23 358.46 0.5 356.91 0.5L356.91 0.5Q354.91 0.5 353.81-0.93 352.71-2.35 352.71-4.55L352.71-4.55Q352.71-5.8 352.98-7.08 353.26-8.35 353.56-9.45L353.56-9.45Q353.76-10.3 353.93-11.13 354.11-11.95 354.11-12.6L354.11-12.6Q354.11-14.9 351.71-14.9L351.71-14.9Q349.66-14.9 348.11-13.38 346.56-11.85 345.46-9.55 344.36-7.25 343.66-4.9L343.66-4.9 343.66-3.7Q343.66-1.85 342.63-0.65 341.61 0.55 339.86 0.55Z" opacity="1" transform="matrix(1,0,0,1,0,0)" fill="#d2dbc8" class="slogan-text-1" data-fill-palette-color="secondary" id="text-1"></path></svg></g></svg></g></svg></g></svg></g><g transform="matrix(1,0,0,1,108.2566076555135,0)"><svg viewBox="0 0 180.9843846889729 198.46675247966095" height="198.46675247966095" width="180.9843846889729"><g><svg xmlns="http://www.w3.org/2000/svg" xmlns:xlink="http://www.w3.org/1999/xlink" version="1.1" x="0" y="0" viewBox="17.4948065993762 12.506014349937242 62.955715315281935 69.03698565006276" enable-background="new 0 0 100 100" xml:space="preserve" height="198.46675247966095" width="180.9843846889729" class="icon-icon-0" data-fill-palette-color="accent" id="icon-0"><path d="M80.438 42.862C80.424 42.798 78.979 36.416 77.472 30.138 75.695 22.734 70.281 19.733 66.051 18.519 61.133 17.107 57.357 12.726 57.32 12.682A0.5 0.5 0 0 0 56.766 12.537C56.75 12.543 56.743 12.559 56.728 12.566L56.723 12.555C51.581 15.019 46.365 15.019 41.221 12.555L41.216 12.566C41.201 12.559 41.194 12.542 41.178 12.537A0.5 0.5 0 0 0 40.625 12.683C40.587 12.727 36.82 17.106 31.893 18.52 27.664 19.734 22.25 22.735 20.473 30.139 18.966 36.416 17.522 42.799 17.507 42.863A0.5 0.5 0 0 0 17.913 43.466L29.906 45.479A0.5 0.5 0 0 0 30.474 45.106L32.024 38.837C32.488 39.968 33.067 41.992 33.067 45.043 33.067 50.308 32.431 78.655 32.424 78.94A0.5 0.5 0 0 0 32.716 79.406C37.208 81.47 48.216 81.541 48.95 81.543H48.989C49.635 81.541 60.72 81.48 65.232 79.406A0.5 0.5 0 0 0 65.523 78.94C65.516 78.655 64.88 50.307 64.88 45.043 64.88 41.991 65.459 39.967 65.923 38.836L67.473 45.106A0.5 0.5 0 0 0 68.041 45.479L80.035 43.466A0.5 0.5 0 0 0 80.438 42.862M76.5 30.372C77.414 34.177 78.302 38.014 78.865 40.463L78.192 40.579 75.935 31.358C74.643 25.684 71.328 21.888 66.346 20.381 62.439 19.199 59.848 17.491 58.304 16.038 58.393 15.791 58.477 15.542 58.53 15.283 60.18 16.737 62.739 18.61 65.776 19.481 69.75 20.621 74.836 23.437 76.5 30.372M56.37 13.81C55.682 17.837 49.994 20.075 48.973 20.445 47.953 20.074 42.264 17.837 41.576 13.81 44.032 14.871 46.503 15.408 48.973 15.408S53.913 14.871 56.37 13.81M48.817 21.45C48.919 21.483 49.027 21.483 49.129 21.45 49.444 21.346 56.358 19.025 57.328 14.154 57.412 14.239 57.523 14.343 57.619 14.438 57.392 18.88 50.138 21.653 48.973 22.069 47.808 21.654 40.554 18.881 40.327 14.439 40.424 14.344 40.535 14.24 40.619 14.155 41.588 19.025 48.501 21.347 48.817 21.45M21.445 30.372C23.11 23.437 28.195 20.622 32.169 19.481 35.205 18.61 37.765 16.737 39.415 15.283 39.464 15.522 39.544 15.75 39.623 15.978 38.087 17.444 35.477 19.182 31.517 20.38 26.536 21.887 23.221 25.683 21.93 31.349L19.671 40.578 19.077 40.475C19.64 38.027 20.53 34.184 21.445 30.372M18.6 42.567L18.854 41.452 29.875 43.358 29.613 44.415zM32.258 37.126A0.502 0.502 0 0 0 31.372 37.305L30.116 42.384 20.66 40.749 22.904 31.579C24.112 26.276 27.191 22.734 31.808 21.337 35.751 20.144 38.413 18.43 40.055 16.943 42.233 20.857 48.496 22.967 48.817 23.073A0.5 0.5 0 0 0 49.129 23.073C49.449 22.968 55.661 20.877 57.865 16.995 58.364 17.442 58.948 17.907 59.638 18.373L33.672 67.484C33.853 58.883 34.066 48.096 34.066 45.042 34.066 39.606 32.332 37.225 32.258 37.126M66.188 36.935A0.51 0.51 0 0 0 65.688 37.126C65.614 37.225 63.879 39.606 63.879 45.042 63.879 50.005 64.442 75.399 64.514 78.627 59.98 80.497 49.443 80.541 48.973 80.542 48.659 80.541 43.862 80.521 39.357 79.952L69.1 22.713C72.036 24.54 74.042 27.548 74.962 31.587L77.205 40.749 67.826 42.371 66.574 37.305A0.5 0.5 0 0 0 66.188 36.935M68.331 44.415L68.066 43.344 79.089 41.438 79.347 42.567z" fill="#f8f8ec" data-fill-palette-color="accent"></path></svg></g></svg></g><g></g></svg></g><defs></defs></svg><rect width="244.57823044932374" height="247.2" fill="none" stroke="none" visibility="hidden"></rect></g></svg></g></svg>